#
#
#

mtllib simplemodel.mtl


#
# cube2_default Mesh
#
g cube2_default Mesh


#
# cube2_default Mesh_default
#
usemtl cube2_default Mesh_default

v 0.114787 -1.025941 0.317386
v 0.003103 -1.020929 -0.380520
v 0.289910 -2.875523 0.445196
v -0.909685 0.616746 0.251782
v -0.052628 -2.104950 1.379318
v 1.042936 -1.228604 0.167401
v 0.121880 -2.867982 -0.604811
v 0.190691 -4.400969 0.281001
v 1.310382 -2.676123 0.283324
v -0.227063 -4.240988 -0.366812
v -0.335613 -2.664990 -1.333449
v 1.142352 -2.668582 -0.766683
v -0.889685 0.650108 -0.019537
v 0.931252 -1.223592 -0.530505
v 1.101610 -2.640828 1.106201
v 0.433239 -2.287765 -1.534460
v -0.115379 -4.245999 0.331094
v 0.079007 -4.395957 -0.416905
v -0.951555 0.618625 -0.009862
v -0.847815 0.648229 0.242108
v -0.494910 -2.085102 -1.384475
v 0.406924 -2.664659 -1.452272
v 0.091406 -2.661195 1.335362
v 0.875521 -2.307614 1.229333
vn -0.984175 -0.082342 0.156904
vn -0.926928 -0.201449 0.316580
vn -0.999374 0.004710 0.035073
vn -0.843516 -0.520822 0.131245
vn -0.843516 -0.520822 0.131245
vn -0.860450 -0.418894 0.290093
vn 0.257936 0.657084 0.708315
vn 0.228714 0.386087 0.893659
vn 0.257936 0.657084 0.708315
vn -0.922045 -0.258986 0.287680
vn 0.177805 -0.116739 0.977117
vn -0.958955 -0.108889 -0.261820
vn -0.950908 0.268381 0.154099
vn 0.128115 -0.931661 -0.339993
vn -0.127125 0.144079 -0.981367
vn -0.855425 -0.116296 0.504701
vn 0.839369 0.528054 0.128913
vn 0.926972 -0.135120 -0.349951
vn 0.973670 0.167516 -0.154611
vn 0.191017 0.157820 0.968817
vn 0.952697 0.194711 0.233357
vn 0.973670 0.167516 -0.154611
vn 0.865427 0.478987 0.146996
vn 0.830960 -0.539237 -0.136849
vn 0.683164 -0.669287 -0.292134
vn 0.205246 -0.974200 0.093858
vn -0.128920 -0.137471 -0.982080
vn 0.768016 0.211031 -0.604663
vn 0.698344 0.707769 -0.106671
vn 0.698344 0.707769 -0.106671
vn 0.682546 0.677404 0.274327
vn 0.029566 0.678572 -0.733939
vn 0.091041 0.193507 -0.976866
vn 0.029566 0.678572 -0.733939
vn -0.950908 0.268381 0.154099
vn 0.104424 -0.113146 0.988076
vn -0.198311 -0.075798 -0.977204
vn -0.442378 -0.894516 0.064369
vn -0.442377 -0.894516 0.064368
vn 0.830960 -0.539237 -0.136849
vn 0.763807 -0.510653 -0.394756
vn -0.442378 -0.894516 0.064369
vn -0.843516 -0.520822 0.131245
vn -0.903023 -0.294154 0.313087
vn -0.203874 0.101424 -0.973729
vn 0.115636 0.077076 0.990297
vn -0.442530 0.893422 0.077233
vn 0.698344 0.707769 -0.106671
vn -0.442535 0.893419 0.077234
vn -0.799830 -0.169037 0.575933
vn 0.029566 0.678572 -0.733939
vn -0.050826 0.512178 -0.857374
vn -0.187103 -0.136993 -0.972741
vn 0.667126 -0.202886 -0.716784
vn -0.000401 -0.999986 -0.005293
vn -0.154729 -0.200168 -0.967467
vn -0.959000 -0.235912 -0.157053
vn 0.076039 -0.965410 0.249401
vn 0.221560 -0.019672 0.974948
vn 0.794902 0.358452 0.489533
vn 0.685731 0.511511 0.517812
vn 0.230719 0.279761 0.931935
vn 0.090474 -0.290609 0.952555
f 1//1 2//2 3//3
f 1//4 4//5 2//6
f 1//7 5//8 6//9
f 3//3 2//10 7//1
f 3//11 8//11 9//11
f 3//12 5//12 1//12
f 7//13 10//13 3//13
f 7//14 11//14 12//14
f 2//15 13//15 14//15
f 2//16 11//16 7//16
f 6//17 12//18 14//19
f 6//20 4//20 1//20
f 6//21 15//21 9//21
f 9//22 12//18 6//23
f 9//24 8//24 12//25
f 9//26 15//26 3//26
f 12//27 10//27 7//27
f 12//28 16//28 14//28
f 14//29 13//30 6//31
f 14//32 16//33 2//34
f 17//35 3//35 10//35
f 17//36 8//36 3//36
f 10//37 12//37 18//37
f 10//38 8//38 17//39
f 18//40 12//41 8//24
f 18//42 8//38 10//38
f 19//43 2//44 4//5
f 19//45 13//45 2//45
f 4//46 6//46 20//46
f 4//47 13//47 19//47
f 20//48 6//31 13//30
f 20//49 13//49 4//49
f 11//50 2//50 21//50
f 21//51 2//52 16//33
f 21//53 16//53 11//53
f 16//54 12//54 22//54
f 22//55 12//55 11//55
f 22//56 11//56 16//56
f 5//57 3//57 23//57
f 23//58 3//58 15//58
f 23//59 15//59 5//59
f 15//60 6//60 24//60
f 24//9 6//61 5//62
f 24//63 5//63 15//63
