#
#
#

mtllib t-tetahedron.mtl


#
#  Mesh
#
g  Mesh


#
#  Mesh_Default - Lambert
#
usemtl  Mesh_Default - Lambert

v 2.063095 -2.389984 0.007084
v 0.197764 -0.030162 0.018376
v -0.298158 -2.956088 1.961578
v 0.098657 -2.560355 -2.409253
vn 0.995529 -0.043455 0.083864
vn 0.168929 0.980459 0.100814
vn -0.363605 -0.567451 0.738777
vn -0.206104 -0.432653 -0.877686
vn 0.995529 -0.043455 0.083864
vn -0.363605 -0.567451 0.738777
vn 0.168929 0.980459 0.100814
vt 0.500000 1.000000
vt 0.000000 0.000000
vt 1.000000 0.000000
f 1/1/1 2/2/2 3/3/3
f 1/1/1 4/2/4 2/3/2
f 1/1/5 3/2/3 4/3/4
f 3/1/6 2/2/7 4/3/4
